{"title":"R.I.P.D.2013.CAM.XViD-FANTA","uid":8768428,"size":1985353863,"categoryP":"video","categoryS":"movies","magnet":"?xt=urn:btih:e7421029be8b09906f42e9714f502ab980cf18c3&amp;dn=R.I.P.D.2013.CAM.XViD-FANTA&amp;tr=udp%3A%2F%2Ftracker.openbittorrent.com%3A80&amp;tr=udp%3A%2F%2Fopen.demonii.com%3A1337&amp;tr=udp%3A%2F%2Ftracker.coppersurfer.tk%3A6969&amp;tr=udp%3A%2F%2Fexodus.desync.com%3A6969","seeders":2,"leechers":0,"uploader":"xxxlavalxxx","files":-1,"time":1375390035,"description":" &lt;a href=&quot;\nhttp://www.imdb.com/title/tt0790736/&quot; rel=&quot;nofollow&quot; target=&quot;_NEW&quot;&gt;\nhttp://www.imdb.com/title/tt0790736/&lt;/a&gt;\n\n\nA recently slain cop joins a team of undead police officers working for the Rest in Peace Department and tries to find the man who murdered him. \n\n\n\nDirector:\n Robert Schwentke \n\nWriters:\n Phil Hay (screenplay), Matt Manfredi (screenplay) \n\nStars:\n Jeff Bridges, Ryan Reynolds, Kevin Bacon\n\nGenres:\n  Action |  Comedy |  Crime |  Fantasy \n\nCountry:\n USA \n\n\n\nFormat                                   : AVI\nFormat/Info                              : Audio Video Interleave\nFormat profile                           : OpenDML\nFormat settings                          : rec\nFile size                                : 1.82 GiB\nDuration                                 : 1h 26mn\nOverall bit rate                         : 3 023 Kbps\nWriting application                      : AVI-Mux GUI 1.17.8.3, Feb 16 201019:42:50\n\nVideo\nID                                       : 0\nFormat                                   : MPEG-4 Visual\nFormat profile                           : Advanced Simple@L5\nFormat settings, BVOP                    : 1\nFormat settings, QPel                    : No\nFormat settings, GMC                     : No warppoints\nFormat settings, Matrix                  : Default (H.263)\nMuxing mode                              : Packed bitstream\nCodec ID                                 : XVID\nCodec ID/Hint                            : XviD\nDuration                                 : 1h 26mn\nBit rate                                 : 2 824 Kbps\nWidth                                    : 660 pixels\nHeight                                   : 330 pixels\nDisplay aspect ratio                     : 2.000\nFrame rate                               : 29.970 fps\nColor space                              : YUV\nChroma subsampling                       : 4:2:0\nBit depth                                : 8 bits\nScan type                                : Progressive\nCompression mode                         : Lossy\nBits/(Pixel*Frame)                       : 0.433\nStream size                              : 1.70 GiB (93%)\nWriting library                          : XviD 64\n\nAudio\nID                                       : 1\nFormat                                   : AC-3\nFormat/Info                              : Audio Coding 3\nMode extension                           : CM (complete main)\nFormat settings, Endianness              : Big\nCodec ID                                 : 2000\nDuration                                 : 1h 26mn\nBit rate mode                            : Constant\nBit rate                                 : 192 Kbps\nChannel(s)                               : 2 channels\nChannel positions                        : Front: L R\nSampling rate                            : 48.0 KHz\nBit depth                                : 16 bits\nCompression mode                         : Lossy\nStream size                              : 118 MiB (6%)\nAlignment                                : Aligned on interleaves\nInterleave, duration                     : 64 ms (1.92 video frames)\nInterleave, preload duration             : 192 ms\nTitle                                    : CrEwSaDe\n\n\n\ninfo\n\n\n    &lt;a href=&quot;\thttp://addpix.net/viewer.php?file=72905328505018924322.png&quot; rel=&quot;nofollow&quot; target=&quot;_NEW&quot;&gt;\thttp://addpix.net/viewer.php?file=72905328505018924322.png&lt;/a&gt;\n    \n\n\nscreens\n\n\n    &lt;a href=&quot;\thttp://addpix.net/viewer.php?file=56701906419920216607.jpg&quot; rel=&quot;nofollow&quot; target=&quot;_NEW&quot;&gt;\thttp://addpix.net/viewer.php?file=56701906419920216607.jpg&lt;/a&gt;\n    &lt;a href=&quot;\thttp://addpix.net/viewer.php?file=06368697067426208839.jpg&quot; rel=&quot;nofollow&quot; target=&quot;_NEW&quot;&gt;\thttp://addpix.net/viewer.php?file=06368697067426208839.jpg&lt;/a&gt;\n    &lt;a href=&quot;\thttp://addpix.net/viewer.php?file=34423414953677328901.jpg&quot; rel=&quot;nofollow&quot; target=&quot;_NEW&quot;&gt;\thttp://addpix.net/viewer.php?file=34423414953677328901.jpg&lt;/a&gt;\n    &lt;a href=&quot;\thttp://addpix.net/viewer.php?file=94404636397660985101.jpg&quot; rel=&quot;nofollow&quot; target=&quot;_NEW&quot;&gt;\thttp://addpix.net/viewer.php?file=94404636397660985101.jpg&lt;/a&gt;\n    &lt;a href=&quot;\thttp://addpix.net/viewer.php?file=73526740500065274987.jpg&quot; rel=&quot;nofollow&quot; target=&quot;_NEW&quot;&gt;\thttp://addpix.net/viewer.php?file=73526740500065274987.jpg&lt;/a&gt;\n    &lt;a href=&quot;\thttp://addpix.net/viewer.php?file=11698236274288693215.jpg&quot; rel=&quot;nofollow&quot; target=&quot;_NEW&quot;&gt;\thttp://addpix.net/viewer.php?file=11698236274288693215.jpg&lt;/a&gt;\n","torrent":{"xt":"urn:btih:e7421029be8b09906f42e9714f502ab980cf18c3","amp;dn":"R.I.P.D.2013.CAM.XViD-FANTA","amp;tr":["udp%3A%2F%2Ftracker.openbittorrent.com%3A80","udp%3A%2F%2Fopen.demonii.com%3A1337","udp%3A%2F%2Ftracker.coppersurfer.tk%3A6969","udp%3A%2F%2Fexodus.desync.com%3A6969"],"infoHash":"e7421029be8b09906f42e9714f502ab980cf18c3","infoHashBuffer":{"type":"Buffer","data":[231,66,16,41,190,139,9,144,111,66,233,113,79,80,42,185,128,207,24,195]},"announce":[],"urlList":[]}}